<svg width="234" height="49" viewBox="0 0 234 49" fill="none" xmlns="http://www.w3.org/2000/svg">
<path d="M15.7159 49H11.0361V4.69H10.1979V49H5.51804V4.69H4.67986V49H0V0H13.4109C14.0629 0 14.5984 0.233333 15.0175 0.699999C15.4831 1.12 15.7159 1.65667 15.7159 2.31V49Z" fill="url(#paint0_linear_6018_227)"/>
<path d="M24.4683 0C25.1202 0 25.6557 0.233333 26.0748 0.699999C26.5405 1.16667 26.7733 1.72667 26.7733 2.38V49H22.0934V26.88H21.2553V49H16.5754V2.38C16.5754 1.72667 16.785 1.16667 17.204 0.699999C17.6697 0.233333 18.2285 0 18.8804 0H24.4683ZM22.0934 22.19V4.69H21.2553V22.19H22.0934Z" fill="url(#paint1_linear_6018_227)"/>
<path d="M35.5186 0C36.1705 0 36.706 0.233333 37.1251 0.699999C37.5907 1.16667 37.8236 1.72667 37.8236 2.38V46.62C37.8236 47.2733 37.5907 47.8333 37.1251 48.3C36.706 48.7667 36.1705 49 35.5186 49H27.6257V0H35.5186ZM33.1437 44.31V4.69H32.3055V44.31H33.1437Z" fill="url(#paint2_linear_6018_227)"/>
<path d="M48.8738 49H38.6759V0H48.8738V21.28H44.194V4.69H43.3558V22.12H48.8738V26.81H43.3558V44.31H44.194V27.72H48.8738V49Z" fill="url(#paint3_linear_6018_227)"/>
<path d="M63.1443 49H55.2514V0H63.1443C63.7962 0 64.3317 0.233333 64.7508 0.699999C65.2164 1.16667 65.4493 1.72667 65.4493 2.38V21.77C65.4493 22.4233 65.2164 22.9833 64.7508 23.45C64.3317 23.87 63.7962 24.08 63.1443 24.08H59.9312V24.99H63.1443C63.7962 24.99 64.3317 25.2233 64.7508 25.69C65.2164 26.11 65.4493 26.6467 65.4493 27.3V46.69C65.4493 47.3433 65.2164 47.9033 64.7508 48.37C64.3317 48.79 63.7962 49 63.1443 49ZM59.9312 44.31H60.7694V29.68H59.9312V44.31ZM59.9312 19.39H60.7694V4.69H59.9312V19.39Z" fill="url(#paint4_linear_6018_227)"/>
<path d="M71.8197 0H76.4995V24.5C76.4995 25.1533 76.2667 25.7133 75.801 26.18C75.3819 26.6 74.8464 26.81 74.1945 26.81H73.7754V49H69.0956V26.81H68.6066C67.9547 26.81 67.3959 26.6 66.9303 26.18C66.5112 25.7133 66.3016 25.1533 66.3016 24.5V0H70.9815V22.12H71.8197V0Z" fill="url(#paint5_linear_6018_227)"/>
<path d="M98.593 49H90.7699C90.118 49 89.5592 48.7667 89.0936 48.3C88.6279 47.8333 88.3951 47.2733 88.3951 46.62V4.69H87.5569V49H82.877V0H90.7699C91.4218 0 91.9574 0.233333 92.3764 0.699999C92.8421 1.12 93.0749 1.65667 93.0749 2.31V44.31H93.9131V0H98.593V49Z" fill="url(#paint6_linear_6018_227)"/>
<path d="M99.4524 0H104.132V49H99.4524V0Z" fill="url(#paint7_linear_6018_227)"/>
<path d="M109.657 49H104.978V0H109.657V19.39H110.496V0H115.175V21.7C115.175 22.3533 114.943 22.9133 114.477 23.38C114.058 23.8467 113.522 24.08 112.87 24.08H109.657V24.92H112.87C113.522 24.92 114.058 25.1533 114.477 25.62C114.943 26.0867 115.175 26.6467 115.175 27.3V49H110.496V29.61H109.657V49Z" fill="url(#paint8_linear_6018_227)"/>
<path d="M118.333 49C117.681 49 117.122 48.79 116.656 48.37C116.237 47.9033 116.028 47.3433 116.028 46.69V2.31C116.028 1.65667 116.237 1.12 116.656 0.699999C117.122 0.233333 117.681 0 118.333 0H123.921C124.573 0 125.108 0.233333 125.527 0.699999C125.993 1.12 126.226 1.65667 126.226 2.31V46.69C126.226 47.3433 125.993 47.9033 125.527 48.37C125.108 48.79 124.573 49 123.921 49H118.333ZM120.708 44.31H121.546V4.69H120.708V44.31Z" fill="url(#paint9_linear_6018_227)"/>
<path d="M137.276 49H127.078V0H131.758V44.31H132.596V24.92H137.276V49Z" fill="url(#paint10_linear_6018_227)"/>
<path d="M146.021 0C146.673 0 147.209 0.233333 147.628 0.699999C148.093 1.16667 148.326 1.72667 148.326 2.38V49H143.646V26.88H142.808V49H138.128V2.38C138.128 1.72667 138.338 1.16667 138.757 0.699999C139.223 0.233333 139.781 0 140.433 0H146.021ZM143.646 22.19V4.69H142.808V22.19H143.646Z" fill="url(#paint11_linear_6018_227)"/>
<path d="M151.484 49C150.832 49 150.273 48.79 149.807 48.37C149.388 47.9033 149.179 47.3433 149.179 46.69V27.72H153.859V44.31H154.697V26.81H151.484C150.832 26.81 150.273 26.6 149.807 26.18C149.388 25.7133 149.179 25.1533 149.179 24.5V2.31C149.179 1.65667 149.388 1.12 149.807 0.699999C150.273 0.233333 150.832 0 151.484 0H157.072C157.723 0 158.259 0.233333 158.678 0.699999C159.144 1.12 159.377 1.65667 159.377 2.31V21.28H154.697V4.69H153.859V22.12H157.072C157.723 22.12 158.259 22.3533 158.678 22.82C159.144 23.2867 159.377 23.8467 159.377 24.5V46.69C159.377 47.3433 159.144 47.9033 158.678 48.37C158.259 48.79 157.723 49 157.072 49H151.484Z" fill="url(#paint12_linear_6018_227)"/>
<path d="M175.952 49H168.129C167.477 49 166.918 48.7667 166.453 48.3C165.987 47.8333 165.754 47.2733 165.754 46.62V2.31C165.754 1.65667 165.987 1.12 166.453 0.699999C166.918 0.233333 167.477 0 168.129 0H173.647C174.299 0 174.834 0.233333 175.253 0.699999C175.719 1.12 175.952 1.65667 175.952 2.31V24.08H171.272V4.69H170.434V44.31H171.272V24.92H178.746V29.61H175.952V49Z" fill="url(#paint13_linear_6018_227)"/>
<path d="M181.906 49C181.254 49 180.695 48.79 180.23 48.37C179.811 47.9033 179.601 47.3433 179.601 46.69V0H184.281V44.31H185.119V0H189.799V46.69C189.799 47.3433 189.566 47.9033 189.1 48.37C188.681 48.79 188.146 49 187.494 49H181.906Z" fill="url(#paint14_linear_6018_227)"/>
<path d="M200.849 49H190.651V0H200.849V21.28H196.169V4.69H195.331V22.12H200.849V26.81H195.331V44.31H196.169V27.72H200.849V49Z" fill="url(#paint15_linear_6018_227)"/>
<path d="M209.594 0C210.246 0 210.782 0.233333 211.201 0.699999C211.667 1.16667 211.899 1.72667 211.899 2.38V46.62C211.899 47.2733 211.667 47.8333 211.201 48.3C210.782 48.7667 210.246 49 209.594 49H201.702V0H209.594ZM207.22 44.31V4.69H206.381V44.31H207.22Z" fill="url(#paint16_linear_6018_227)"/>
<path d="M222.95 49H212.752V0H222.95V21.28H218.27V4.69H217.432V22.12H222.95V26.81H217.432V44.31H218.27V27.72H222.95V49Z" fill="url(#paint17_linear_6018_227)"/>
<path d="M226.107 49C225.455 49 224.896 48.79 224.431 48.37C224.012 47.9033 223.802 47.3433 223.802 46.69V27.72H228.482V44.31H229.32V26.81H226.107C225.455 26.81 224.896 26.6 224.431 26.18C224.012 25.7133 223.802 25.1533 223.802 24.5V2.31C223.802 1.65667 224.012 1.12 224.431 0.699999C224.896 0.233333 225.455 0 226.107 0H231.695C232.347 0 232.882 0.233333 233.302 0.699999C233.767 1.12 234 1.65667 234 2.31V21.28H229.32V4.69H228.482V22.12H231.695C232.347 22.12 232.882 22.3533 233.302 22.82C233.767 23.2867 234 23.8467 234 24.5V46.69C234 47.3433 233.767 47.9033 233.302 48.37C232.882 48.79 232.347 49 231.695 49H226.107Z" fill="url(#paint18_linear_6018_227)"/>
<defs>
<linearGradient id="paint0_linear_6018_227" x1="117" y1="0" x2="117" y2="49" gradientUnits="userSpaceOnUse">
<stop stop-color="#545454"/>
<stop offset="1" stop-color="#545454" stop-opacity="0.2"/>
</linearGradient>
<linearGradient id="paint1_linear_6018_227" x1="117" y1="0" x2="117" y2="49" gradientUnits="userSpaceOnUse">
<stop stop-color="#545454"/>
<stop offset="1" stop-color="#545454" stop-opacity="0.2"/>
</linearGradient>
<linearGradient id="paint2_linear_6018_227" x1="117" y1="0" x2="117" y2="49" gradientUnits="userSpaceOnUse">
<stop stop-color="#545454"/>
<stop offset="1" stop-color="#545454" stop-opacity="0.2"/>
</linearGradient>
<linearGradient id="paint3_linear_6018_227" x1="117" y1="0" x2="117" y2="49" gradientUnits="userSpaceOnUse">
<stop stop-color="#545454"/>
<stop offset="1" stop-color="#545454" stop-opacity="0.2"/>
</linearGradient>
<linearGradient id="paint4_linear_6018_227" x1="117" y1="0" x2="117" y2="49" gradientUnits="userSpaceOnUse">
<stop stop-color="#545454"/>
<stop offset="1" stop-color="#545454" stop-opacity="0.2"/>
</linearGradient>
<linearGradient id="paint5_linear_6018_227" x1="117" y1="0" x2="117" y2="49" gradientUnits="userSpaceOnUse">
<stop stop-color="#545454"/>
<stop offset="1" stop-color="#545454" stop-opacity="0.2"/>
</linearGradient>
<linearGradient id="paint6_linear_6018_227" x1="117" y1="0" x2="117" y2="49" gradientUnits="userSpaceOnUse">
<stop stop-color="#545454"/>
<stop offset="1" stop-color="#545454" stop-opacity="0.2"/>
</linearGradient>
<linearGradient id="paint7_linear_6018_227" x1="117" y1="0" x2="117" y2="49" gradientUnits="userSpaceOnUse">
<stop stop-color="#545454"/>
<stop offset="1" stop-color="#545454" stop-opacity="0.2"/>
</linearGradient>
<linearGradient id="paint8_linear_6018_227" x1="117" y1="0" x2="117" y2="49" gradientUnits="userSpaceOnUse">
<stop stop-color="#545454"/>
<stop offset="1" stop-color="#545454" stop-opacity="0.2"/>
</linearGradient>
<linearGradient id="paint9_linear_6018_227" x1="117" y1="0" x2="117" y2="49" gradientUnits="userSpaceOnUse">
<stop stop-color="#545454"/>
<stop offset="1" stop-color="#545454" stop-opacity="0.2"/>
</linearGradient>
<linearGradient id="paint10_linear_6018_227" x1="117" y1="0" x2="117" y2="49" gradientUnits="userSpaceOnUse">
<stop stop-color="#545454"/>
<stop offset="1" stop-color="#545454" stop-opacity="0.2"/>
</linearGradient>
<linearGradient id="paint11_linear_6018_227" x1="117" y1="0" x2="117" y2="49" gradientUnits="userSpaceOnUse">
<stop stop-color="#545454"/>
<stop offset="1" stop-color="#545454" stop-opacity="0.2"/>
</linearGradient>
<linearGradient id="paint12_linear_6018_227" x1="117" y1="0" x2="117" y2="49" gradientUnits="userSpaceOnUse">
<stop stop-color="#545454"/>
<stop offset="1" stop-color="#545454" stop-opacity="0.2"/>
</linearGradient>
<linearGradient id="paint13_linear_6018_227" x1="117" y1="0" x2="117" y2="49" gradientUnits="userSpaceOnUse">
<stop stop-color="#545454"/>
<stop offset="1" stop-color="#545454" stop-opacity="0.2"/>
</linearGradient>
<linearGradient id="paint14_linear_6018_227" x1="117" y1="0" x2="117" y2="49" gradientUnits="userSpaceOnUse">
<stop stop-color="#545454"/>
<stop offset="1" stop-color="#545454" stop-opacity="0.2"/>
</linearGradient>
<linearGradient id="paint15_linear_6018_227" x1="117" y1="0" x2="117" y2="49" gradientUnits="userSpaceOnUse">
<stop stop-color="#545454"/>
<stop offset="1" stop-color="#545454" stop-opacity="0.2"/>
</linearGradient>
<linearGradient id="paint16_linear_6018_227" x1="117" y1="0" x2="117" y2="49" gradientUnits="userSpaceOnUse">
<stop stop-color="#545454"/>
<stop offset="1" stop-color="#545454" stop-opacity="0.2"/>
</linearGradient>
<linearGradient id="paint17_linear_6018_227" x1="117" y1="0" x2="117" y2="49" gradientUnits="userSpaceOnUse">
<stop stop-color="#545454"/>
<stop offset="1" stop-color="#545454" stop-opacity="0.2"/>
</linearGradient>
<linearGradient id="paint18_linear_6018_227" x1="117" y1="0" x2="117" y2="49" gradientUnits="userSpaceOnUse">
<stop stop-color="#545454"/>
<stop offset="1" stop-color="#545454" stop-opacity="0.2"/>
</linearGradient>
</defs>
</svg>
